<?xml version="1.0" encoding="utf-8"?>
<!-- Generator: Adobe Illustrator 21.0.0, SVG Export Plug-In . SVG Version: 6.00 Build 0)  -->
<svg version="1.1" id="Capa_1" xmlns="http://www.w3.org/2000/svg" xmlns:xlink="http://www.w3.org/1999/xlink" x="0px" y="0px"
	 width="512px" height="512px" viewBox="0 0 512 512" style="enable-background:new 0 0 512 512;" xml:space="preserve">
<style type="text/css">
	.st0{fill:#FFFFFF;}
</style>
<g>
	<circle class="st0" cx="90.4" cy="259.7" r="10.9"/>
	<circle class="st0" cx="90.4" cy="313.7" r="10.9"/>
	<circle class="st0" cx="90.4" cy="367.6" r="10.9"/>
	<path class="st0" d="M357.3,0H130.8C119,0,107.8,4.6,99.5,12.9L17.8,89c-0.1,0.1-0.1,0.1-0.2,0.2c-8.4,8.4-13,19.5-13,31.4v116.6
		c0,4.2,3.4,7.6,7.6,7.6s7.6-3.4,7.6-7.6V120.6c0-0.8,0-1.6,0.1-2.4h77.5c17.1,0,31.1-13.9,31.1-31.1V15.2c0.8-0.1,1.6-0.1,2.4-0.1
		h226.5c8.2,0,14.9,6.7,14.9,14.9v452c0,8.2-6.7,14.9-14.9,14.9H34.6c-8.2,0-14.9-6.7-14.9-14.9V267.4c0-4.2-3.4-7.6-7.6-7.6
		s-7.6,3.4-7.6,7.6V482c0,16.5,13.4,30,30,30h322.7c16.5,0,30-13.5,30-30V30C387.3,13.4,373.8,0,357.3,0L357.3,0z M113.3,87.1
		c0,8.8-7.2,16-16,16H25.5c0.8-1.1,1.7-2.1,2.7-3.1l81.7-76.1c0.1-0.1,0.1-0.1,0.2-0.2c1-1,2.1-1.9,3.2-2.8L113.3,87.1L113.3,87.1z"
		/>
	<path class="st0" d="M312.4,252.2H137c-4.2,0-7.6,3.4-7.6,7.6c0,4.2,3.4,7.6,7.6,7.6h175.4c4.2,0,7.6-3.4,7.6-7.6
		C320,255.6,316.6,252.2,312.4,252.2z"/>
	<path class="st0" d="M312.4,306.1H137c-4.2,0-7.6,3.4-7.6,7.6c0,4.2,3.4,7.6,7.6,7.6h175.4c4.2,0,7.6-3.4,7.6-7.6
		C320,309.5,316.6,306.1,312.4,306.1z"/>
	<path class="st0" d="M312.4,360H137c-4.2,0-7.6,3.4-7.6,7.6s3.4,7.6,7.6,7.6h175.4c4.2,0,7.6-3.4,7.6-7.6S316.6,360,312.4,360z"/>
	<path class="st0" d="M173.4,177.2H83.8c-4.2,0-7.6,3.4-7.6,7.6s3.4,7.6,7.6,7.6h89.5c4.2,0,7.6-3.4,7.6-7.6
		S177.5,177.2,173.4,177.2z"/>
	<path class="st0" d="M499.9,159.1h-23.3v-18.2c0-17.3-14.1-31.4-31.4-31.4s-31.4,14.1-31.4,31.4V243c0,4.2,3.4,7.6,7.6,7.6
		s7.6-3.4,7.6-7.6v-68.8h32.6v238.9h-32.6V273.3c0-4.2-3.4-7.6-7.6-7.6s-7.6,3.4-7.6,7.6v147.4c0,0.1,0,0.1,0,0.2c0,0.2,0,0.3,0,0.5
		c0,0.1,0,0.2,0,0.4c0,0.1,0,0.2,0.1,0.4c0,0.1,0.1,0.3,0.1,0.4c0,0.1,0,0.1,0,0.2l21.6,82.2c0.1,0.2,0.1,0.4,0.2,0.6
		c1.4,4,5.2,6.6,9.4,6.6c4.2,0,8-2.7,9.4-6.7c0.1-0.2,0.1-0.4,0.2-0.6l21.6-82.2c0-0.1,0-0.1,0-0.2c0-0.1,0.1-0.3,0.1-0.4
		c0-0.1,0-0.2,0.1-0.4c0-0.1,0-0.2,0-0.4c0-0.2,0-0.3,0-0.5c0-0.1,0-0.1,0-0.2V174.3h15.7v109.2c0,4.2,3.4,7.6,7.6,7.6
		s7.6-3.4,7.6-7.6V166.7C507.4,162.5,504,159.1,499.9,159.1L499.9,159.1z M428.9,159.1v-18.2c0-9,7.3-16.3,16.3-16.3
		s16.3,7.3,16.3,16.3v18.2H428.9z M445.2,481.6l-14-53.3h28.1L445.2,481.6z"/>
</g>
</svg>
