<?xml version="1.0" encoding="utf-8"?>
<!-- Generator: Adobe Illustrator 21.0.0, SVG Export Plug-In . SVG Version: 6.00 Build 0)  -->
<svg version="1.1" id="Capa_1" xmlns="http://www.w3.org/2000/svg" xmlns:xlink="http://www.w3.org/1999/xlink" x="0px" y="0px"
	 width="512px" height="512px" viewBox="0 0 512 512" style="enable-background:new 0 0 512 512;" xml:space="preserve">
<style>
	.st0{
		fill: #ffffff;
		stroke: #ffffff;
	}
</style>	 
<g>
	<path class="st0" d="M443,38.2h-73.3c-4.1,0-7.5,3.4-7.5,7.5s3.4,7.5,7.5,7.5H443c8.7,0,15.7,7,15.7,15.7v412.5c0,8.7-7,15.7-15.7,15.7H69
		c-8.7,0-15.7-7-15.7-15.7V68.9c0-8.7,7-15.7,15.7-15.7h73.3c4.1,0,7.5-3.4,7.5-7.5s-3.4-7.5-7.5-7.5H69
		c-16.9,0-30.7,13.8-30.7,30.7v412.5c0,16.9,13.8,30.7,30.7,30.7h374c16.9,0,30.7-13.8,30.7-30.7V68.9
		C473.7,51.9,459.9,38.2,443,38.2L443,38.2z"/>
	<path class="st0" d="M75.8,431.7c-4.1,0-7.5,3.4-7.5,7.5v35.4c0,4.1,3.4,7.5,7.5,7.5h360.5c4.1,0,7.5-3.4,7.5-7.5v-399c0-4.1-3.4-7.5-7.5-7.5
		h-67c-4.1,0-7.5,3.4-7.5,7.5s3.4,7.5,7.5,7.5h59.5v384H83.2v-27.9C83.2,435,79.9,431.7,75.8,431.7z"/>
	<path class="st0" d="M142.7,68.1h-67c-4.1,0-7.5,3.4-7.5,7.5v331.6c0,4.1,3.4,7.5,7.5,7.5s7.5-3.4,7.5-7.5V83.1h59.5c4.1,0,7.5-3.4,7.5-7.5
		S146.9,68.1,142.7,68.1z"/>
	<path class="st0" d="M186.8,91.6h97.7c4.1,0,7.5-3.4,7.5-7.5s-3.4-7.5-7.5-7.5h-97.7c-3.9,0-7-3.1-7-7V45.5c0-3.9,3.1-7,7-7h19.7
		c6.4,0,11.8-4.5,13-10.8l1.4-7.6c0.5-3,3.2-5.2,6.2-5.2h57.8c3,0,5.6,2.2,6.2,5.2l1.4,7.6c1.2,6.3,6.6,10.8,13,10.8h19.7
		c3.9,0,7,3.1,7,7v24.1c0,3.9-3.1,7-7,7h-8.9c-4.1,0-7.5,3.4-7.5,7.5s3.4,7.5,7.5,7.5h8.9c12.1,0,22-9.9,22-22V45.5
		c0-12.1-9.9-22-22-22H307l-1.1-6.1C304,7.3,295.2,0,284.9,0h-57.8c-10.3,0-19.1,7.3-20.9,17.4l-1.1,6.1h-18.3c-12.1,0-22,9.9-22,22
		v24.1C164.8,81.7,174.6,91.6,186.8,91.6L186.8,91.6z"/>
	<path class="st0" d="M241.8,41.2c-4.1,0-7.5,3.4-7.5,7.5s3.4,7.5,7.5,7.5h29.4c4.1,0,7.5-3.4,7.5-7.5s-3.4-7.5-7.5-7.5H241.8z"/>
	<path class="st0" d="M313.4,126.7V143h-16.3c-6.2,0-11.3,5.1-11.3,11.3v30c0,6.2,5.1,11.3,11.3,11.3h16.3v16.3c0,6.2,5.1,11.3,11.3,11.3h30
		c6.2,0,11.3-5.1,11.3-11.3v-16.3h16.3c6.2,0,11.3-5.1,11.3-11.3v-30c0-6.2-5.1-11.3-11.3-11.3H366v-16.3c0-6.2-5.1-11.3-11.3-11.3
		h-30C318.5,115.4,313.4,120.5,313.4,126.7z M328.4,150.5v-20.1h22.7v20.1c0,4.1,3.4,7.5,7.5,7.5h20.1v22.7h-20.1
		c-4.1,0-7.5,3.4-7.5,7.5v20.1h-22.7v-20.1c0-4.1-3.4-7.5-7.5-7.5h-20.1V158h20.1C325.1,158,328.4,154.6,328.4,150.5z"/>
	<path class="st0" d="M249.4,136.2H125.1c-8.1,0-14.6,6.6-14.6,14.6v36.9c0,8.1,6.6,14.6,14.6,14.6h16.4c4.1,0,7.5-3.4,7.5-7.5s-3.4-7.5-7.5-7.5
		h-16v-36.2H249v36.2h-75.7c-4.1,0-7.5,3.4-7.5,7.5s3.4,7.5,7.5,7.5h76c8.1,0,14.6-6.6,14.6-14.6v-36.9
		C264,142.8,257.4,136.2,249.4,136.2z"/>
	<path class="st0" d="M382.1,249H129.8c-4.1,0-7.5,3.4-7.5,7.5s3.4,7.5,7.5,7.5h252.4c4.1,0,7.5-3.4,7.5-7.5S386.3,249,382.1,249z"/>
	<path class="st0" d="M338.5,315c4.1,0,7.5-3.4,7.5-7.5s-3.4-7.5-7.5-7.5H173.4c-4.1,0-7.5,3.4-7.5,7.5s3.4,7.5,7.5,7.5H338.5z"/>
	<path class="st0" d="M382.1,351.1H129.8c-4.1,0-7.5,3.4-7.5,7.5s3.4,7.5,7.5,7.5h252.4c4.1,0,7.5-3.4,7.5-7.5S386.3,351.1,382.1,351.1z"/>
	<path class="st0" d="M382.1,402.1H129.8c-4.1,0-7.5,3.4-7.5,7.5s3.4,7.5,7.5,7.5h252.4c4.1,0,7.5-3.4,7.5-7.5S386.3,402.1,382.1,402.1z"/>
	<path class="st0" d="M129.8,315h17.3c4.1,0,7.5-3.4,7.5-7.5s-3.4-7.5-7.5-7.5h-17.3c-4.1,0-7.5,3.4-7.5,7.5C122.3,311.7,125.6,315,129.8,315z"
		/>
	<path class="st0" d="M383.2,300h-17.3c-4.1,0-7.5,3.4-7.5,7.5s3.4,7.5,7.5,7.5h17.3c4.1,0,7.5-3.4,7.5-7.5S387.4,300,383.2,300z"/>
</g>
</svg>
