<?xml version="1.0" encoding="utf-8"?>
<!-- Generator: Adobe Illustrator 21.0.0, SVG Export Plug-In . SVG Version: 6.00 Build 0)  -->
<svg version="1.1" id="Capa_1" xmlns="http://www.w3.org/2000/svg" xmlns:xlink="http://www.w3.org/1999/xlink" x="0px" y="0px"
	 width="512px" height="512px" viewBox="0 0 512 512" style="enable-background:new 0 0 512 512;" xml:space="preserve">
<style type="text/css">
	.st0{fill:#1F3C88;}
	.st1{fill:#6B6B6B;}
</style>
<g>
	<g>
		<path class="st0" d="M309.4,150.4c4.1,0,7.5-3.4,7.5-7.5V40.2c0-4.1-3.4-7.5-7.5-7.5H55.8c-4.1,0-7.5,3.4-7.5,7.5s3.4,7.5,7.5,7.5
			h246.1v87.7h-13H264V73.1c0-4.1-3.4-7.5-7.5-7.5s-7.5,3.4-7.5,7.5v62.3h-50.4V73.1c0-4.1-3.4-7.5-7.5-7.5s-7.5,3.4-7.5,7.5v62.3
			h-50.4V73.1c0-4.1-3.4-7.5-7.5-7.5s-7.5,3.4-7.5,7.5v62.3H67.9V73.1c0-4.1-3.4-7.5-7.5-7.5c-4.1,0-7.5,3.4-7.5,7.5v62.3H28H15
			V47.7h11c4.1,0,7.5-3.4,7.5-7.5s-3.4-7.5-7.5-7.5H7.5C3.4,32.7,0,36,0,40.2v102.7c0,4.1,3.4,7.5,7.5,7.5h13v30l-19,24.2
			c-1,1.3-1.6,2.9-1.6,4.6v203.7c0,36.7,29.8,66.5,66.5,66.5h183.9c36.7,0,66.5-29.8,66.5-66.5v-9.1V277.3v-68.2
			c0-1.7-0.6-3.3-1.6-4.6l-19-24.2v-30L309.4,150.4L309.4,150.4z M301.9,211.7v65.6v118.9H38c-4.1,0-7.5,3.4-7.5,7.5
			s3.4,7.5,7.5,7.5h263.9v1.6c0,28.4-23.1,51.5-51.5,51.5H66.5c-28.4,0-51.5-23.1-51.5-51.5V245.2h264.5c4.1,0,7.5-3.4,7.5-7.5
			s-3.4-7.5-7.5-7.5H15v-18.4l19-24.2c1-1.3,1.6-2.9,1.6-4.6v-32.5h245.8v32.5c0,1.7,0.6,3.3,1.6,4.6L301.9,211.7z"/>
	</g>
</g>
<g>
	<g>
		<path class="st1" d="M231.6,286h-46.4c-4.1,0-7.5,3.4-7.5,7.5s3.4,7.5,7.5,7.5h46.4c4.1,0,7.5-3.4,7.5-7.5
			C239.1,289.4,235.8,286,231.6,286z"/>
	</g>
</g>
<g>
	<g>
		<path class="st1" d="M231.6,340.4h-46.4c-4.1,0-7.5,3.4-7.5,7.5s3.4,7.5,7.5,7.5h46.4c4.1,0,7.5-3.4,7.5-7.5
			S235.8,340.4,231.6,340.4z"/>
	</g>
</g>
<g>
	<g>
		<path class="st0" d="M418.6,32.7c-27.5,0-49.9,22.4-49.9,49.9v49.6v49.6c0,13.3,5.2,25.8,14.6,35.3c9.4,9.4,22,14.6,35.3,14.6
			c27.5,0,49.9-22.4,49.9-49.9v-49.6V82.6C468.5,55,446.1,32.7,418.6,32.7z M453.5,181.7c0,19.3-15.7,34.9-34.9,34.9
			c-9.3,0-18.1-3.6-24.7-10.2c-6.6-6.6-10.2-15.4-10.2-24.7v-42.1h69.8V181.7z M453.5,124.6h-69.8V82.6c0-19.3,15.7-34.9,34.9-34.9
			s34.9,15.7,34.9,34.9L453.5,124.6L453.5,124.6z"/>
	</g>
</g>
<g>
	<g>
		<path class="st0" d="M497.4,274.1c-0.6-0.6-1.2-1.2-1.8-1.8c-0.1-0.1-0.2-0.2-0.3-0.2c-0.5-0.5-1.1-1-1.6-1.4c0,0-0.1,0-0.1-0.1
			c-8.9-7.2-19.8-11.1-31.4-11.1c-11.6,0-22.6,3.9-31.5,11.2c0,0,0,0-0.1,0c-0.6,0.5-1.1,0.9-1.7,1.4c-0.1,0.1-0.2,0.2-0.3,0.2
			c-0.6,0.6-1.2,1.2-1.8,1.8l-35,35c0,0,0,0,0,0l-35,35c-9.4,9.4-14.6,21.9-14.6,35.3c0,13.3,5.2,25.9,14.6,35.3
			c9.7,9.7,22.5,14.6,35.3,14.6s25.6-4.9,35.3-14.6l35-35c0,0,0,0,0,0l35-35C516.9,325.3,516.9,293.6,497.4,274.1z M416.7,404.2
			c-13.6,13.6-35.8,13.6-49.4,0c-6.6-6.6-10.2-15.4-10.2-24.7c0-9.3,3.6-18.1,10.2-24.7l29.7-29.7l49.4,49.4L416.7,404.2z
			 M486.8,334.1l-29.7,29.7l-49.4-49.4l29.7-29.7c0.9-0.9,1.7-1.6,2.6-2.4c13.7-11.2,34-10.4,46.7,2.4
			C500.4,298.4,500.4,320.5,486.8,334.1z"/>
	</g>
</g>
<g>
	<g>
		<path class="st1" d="M121.3,313.2H105v-16.3c0-4.1-3.4-7.5-7.5-7.5s-7.5,3.4-7.5,7.5v16.3H73.7c-4.1,0-7.5,3.4-7.5,7.5
			s3.4,7.5,7.5,7.5H90v16.3c0,4.1,3.4,7.5,7.5,7.5s7.5-3.4,7.5-7.5v-16.3h16.3c4.1,0,7.5-3.4,7.5-7.5
			C128.8,316.6,125.5,313.2,121.3,313.2z"/>
	</g>
</g>
<g>
	<g>
		<path class="st1" d="M144.5,288.9c-2.3-3.4-7-4.3-10.4-2c-3.4,2.3-4.3,7-2,10.4c4.7,6.9,7.2,15,7.2,23.4c0,23-18.7,41.7-41.7,41.7
			c-23,0-41.7-18.7-41.7-41.7c0-23,18.7-41.7,41.7-41.7c5.3,0,10.4,1,15.2,2.9c3.9,1.5,8.2-0.4,9.7-4.2c1.5-3.9-0.4-8.2-4.2-9.7
			c-6.6-2.6-13.6-3.9-20.7-3.9c-31.3,0-56.7,25.5-56.7,56.7s25.5,56.7,56.7,56.7s56.7-25.5,56.7-56.7
			C154.2,309.3,150.9,298.3,144.5,288.9z"/>
	</g>
</g>
</svg>
