<?xml version="1.0" encoding="utf-8"?>
<!-- Generator: Adobe Illustrator 21.0.0, SVG Export Plug-In . SVG Version: 6.00 Build 0)  -->
<svg version="1.1" id="Capa_1" xmlns="http://www.w3.org/2000/svg" xmlns:xlink="http://www.w3.org/1999/xlink" x="0px" y="0px"
	 width="512px" height="512px" viewBox="0 0 512 512" style="enable-background:new 0 0 512 512;" xml:space="preserve">
<style type="text/css">
	.st0{fill:#1F3C88;}
	.st1{fill:#6B6B6B;}
</style>
<g>
	<g>
		<path class="st0" d="M38.5,129.5c4.1,0,7.5-3.4,7.5-7.5V47.5C46,29.6,60.6,15,78.5,15h171.2c1.7,0,3.3,0.2,4.9,0.6V112
			c0,19.1,15.5,34.6,34.5,34.6h96.3c0.4,1.6,0.6,3.2,0.6,4.9V192c0,4.1,3.4,7.5,7.5,7.5s7.5-3.4,7.5-7.5v-40.5
			c0-10-3.9-19.4-11-26.5L276.3,11c-7.1-7.1-16.5-11-26.5-11H78.5C52.3,0,31,21.3,31,47.5V122C31,126.1,34.4,129.5,38.5,129.5z
			 M375.5,131.6h-86.2c-10.8,0-19.5-8.8-19.5-19.6V25.6L375.5,131.6z"/>
		<path class="st0" d="M393.5,200c-4.4,0-8-3.6-8-8v-40.5c0-1.4-0.2-2.9-0.5-4.4h-95.9c-19.3,0-35-15.7-35-35.1V16
			c-1.5-0.3-3-0.5-4.4-0.5H78.5c-17.6,0-32,14.4-32,32V122c0,4.4-3.6,8-8,8s-8-3.6-8-8V47.5c0-26.5,21.5-48,48-48h171.2
			c10.2,0,19.7,4,26.9,11.2l113.8,114c7.2,7.2,11.1,16.7,11.1,26.8V192C401.5,196.4,397.9,200,393.5,200z M78.5,14.5h171.2
			c1.6,0,3.3,0.2,5.1,0.6l0.4,0.1V112c0,18.8,15.3,34.1,34,34.1h96.7l0.1,0.4c0.4,1.7,0.6,3.4,0.6,5V192c0,3.9,3.1,7,7,7s7-3.1,7-7
			v-40.5c0-9.9-3.8-19.1-10.8-26.1l-113.8-114c-7-7-16.3-10.9-26.2-10.9H78.5c-25.9,0-47,21.1-47,47V122c0,3.9,3.1,7,7,7s7-3.1,7-7
			V47.5C45.5,29.3,60.3,14.5,78.5,14.5z M376.7,132.1h-87.5c-11.1,0-20-9-20-20.1V24.4l0.9,0.9L376.7,132.1z M270.2,26.8V112
			c0,10.5,8.5,19.1,19,19.1h85L270.2,26.8z"/>
	</g>
	<g>
		<path class="st0" d="M171,448H78.5C60.6,448,46,433.4,46,415.5V157c0-4.1-3.4-7.5-7.5-7.5S31,152.9,31,157v258.5
			c0,26.2,21.3,47.5,47.5,47.5H171c4.1,0,7.5-3.4,7.5-7.5S175.1,448,171,448z"/>
		<path class="st0" d="M171,463.5H78.5c-26.5,0-48-21.5-48-48V157c0-4.4,3.6-8,8-8s8,3.6,8,8v258.5c0,17.6,14.4,32,32,32H171
			c4.4,0,8,3.6,8,8S175.4,463.5,171,463.5z M38.5,150c-3.9,0-7,3.1-7,7v258.5c0,25.9,21.1,47,47,47H171c3.9,0,7-3.1,7-7s-3.1-7-7-7
			H78.5c-18.2,0-33-14.8-33-33V157C45.5,153.1,42.4,150,38.5,150z"/>
	</g>
	<g>
		<path class="st1" d="M95.9,157.5h123.7c4.1,0,7.5-3.4,7.5-7.5s-3.4-7.5-7.5-7.5H95.9c-4.1,0-7.5,3.4-7.5,7.5
			S91.8,157.5,95.9,157.5z"/>
		<path class="st1" d="M219.6,158H95.9c-4.4,0-8-3.6-8-8s3.6-8,8-8h123.7c4.4,0,8,3.6,8,8S224,158,219.6,158z M95.9,143
			c-3.9,0-7,3.1-7,7s3.1,7,7,7h123.7c3.9,0,7-3.1,7-7s-3.1-7-7-7H95.9z"/>
	</g>
	<g>
		<path class="st1" d="M95.9,322.5c-4.1,0-7.5,3.4-7.5,7.5s3.4,7.5,7.5,7.5h123.7c4.1,0,7.5-3.4,7.5-7.5s-3.4-7.5-7.5-7.5H95.9z"/>
		<path class="st1" d="M219.6,338H95.9c-4.4,0-8-3.6-8-8s3.6-8,8-8h123.7c4.4,0,8,3.6,8,8S224,338,219.6,338z M95.9,323
			c-3.9,0-7,3.1-7,7s3.1,7,7,7h123.7c3.9,0,7-3.1,7-7s-3.1-7-7-7H95.9z"/>
	</g>
	<g>
		<path class="st1" d="M317.9,202.5h-224c-4.1,0-7.5,3.4-7.5,7.5s3.4,7.5,7.5,7.5h224c4.1,0,7.5-3.4,7.5-7.5
			S322.1,202.5,317.9,202.5L317.9,202.5z"/>
		<path class="st1" d="M317.9,218h-224c-4.4,0-8-3.6-8-8s3.6-8,8-8h224c4.4,0,8,3.6,8,8S322.3,218,317.9,218z M93.9,203
			c-3.9,0-7,3.1-7,7s3.1,7,7,7h224c3.9,0,7-3.1,7-7s-3.1-7-7-7H93.9z"/>
	</g>
	<g>
		<path class="st1" d="M325.4,270c0-4.1-3.4-7.5-7.5-7.5h-224c-4.1,0-7.5,3.4-7.5,7.5s3.4,7.5,7.5,7.5h224
			C322.1,277.5,325.4,274.1,325.4,270L325.4,270z"/>
		<path class="st1" d="M317.9,278h-224c-4.4,0-8-3.6-8-8s3.6-8,8-8h224c4.4,0,8,3.6,8,8l0,0l0,0c0,2.1-0.8,4.1-2.3,5.7
			C322.1,277.2,320.1,278,317.9,278z M93.9,263c-3.9,0-7,3.1-7,7s3.1,7,7,7h224c3.9,0,7-3.1,7-7h0c0-3.9-3.1-7-7-7H93.9z"/>
	</g>
	<g>
		<path class="st0" d="M401,297.9V227c0-4.1-3.4-7.5-7.5-7.5s-7.5,3.4-7.5,7.5v67.9c-4.6-0.6-9.3-0.9-14-0.9
			c-34.4,0-66.1,15.7-86.9,43.1c-2.5,3.3-1.9,8,1.4,10.5c3.3,2.5,8,1.9,10.5-1.4c18-23.6,45.3-37.2,74.9-37.2c6.9,0,13.6,0.7,20,2.2
			c0,0,0,0,0,0c42.2,9.2,74,46.9,74,91.8c0,51.8-42.2,94-94,94s-94-42.2-94-94c0-9.5,1.4-19,4.2-28c1.2-4-1-8.2-4.9-9.4
			c-4-1.2-8.2,1-9.4,4.9c-3.3,10.5-4.9,21.4-4.9,32.4c0,16,3.5,31.3,9.7,45H206c-4.1,0-7.5,3.4-7.5,7.5s3.4,7.5,7.5,7.5h75
			c19.5,29.5,53,49,91,49c60.1,0,109-48.9,109-109C481,353,447.1,310.7,401,297.9z"/>
		<path class="st0" d="M372,512.5c-36.7,0-70.8-18.3-91.2-49H206c-4.4,0-8-3.6-8-8s3.6-8,8-8h65.9c-6.3-14-9.5-29-9.5-44.5
			c0-11.1,1.7-22.1,4.9-32.6c1.3-4.2,5.8-6.6,10-5.3c4.2,1.3,6.6,5.8,5.3,10c-2.8,9-4.2,18.3-4.2,27.8c0,51.6,41.9,93.5,93.5,93.5
			s93.5-41.9,93.5-93.5c0-43.6-30.9-82.1-73.6-91.4c-6.6-1.4-13.3-2.1-19.9-2.1c-29.5,0-56.7,13.5-74.5,37
			c-2.7,3.5-7.7,4.2-11.2,1.5c-3.5-2.7-4.2-7.7-1.5-11.2c20.9-27.5,52.7-43.3,87.3-43.3c4.5,0,9.1,0.3,13.5,0.8V227c0-4.4,3.6-8,8-8
			s8,3.6,8,8v70.6c47.1,13.2,80,56.5,80,105.4C481.5,463.4,432.4,512.5,372,512.5z M206,448.5c-3.9,0-7,3.1-7,7s3.1,7,7,7h75.3
			l0.1,0.2c20.2,30.5,54.1,48.8,90.5,48.8c59.8,0,108.5-48.7,108.5-108.5c0-48.6-32.7-91.6-79.6-104.6l-0.4-0.1V227c0-3.9-3.1-7-7-7
			s-7,3.1-7,7v68.5l-0.6-0.1c-4.6-0.6-9.3-0.9-14-0.9c-34.2,0-65.7,15.7-86.5,42.9c-2.3,3.1-1.7,7.5,1.3,9.8
			c3.1,2.3,7.5,1.7,9.8-1.3c18.1-23.8,45.5-37.4,75.3-37.4c6.8,0,13.5,0.7,20.1,2.2c20.8,4.5,39.6,16.1,53.1,32.7
			c13.7,16.8,21.3,38,21.3,59.6c0,52.1-42.4,94.5-94.5,94.5s-94.5-42.4-94.5-94.5c0-9.6,1.4-19,4.3-28.1c1.1-3.7-0.9-7.6-4.6-8.8
			c-3.7-1.1-7.6,0.9-8.8,4.6c-3.2,10.4-4.9,21.3-4.9,32.3c0,15.6,3.3,30.7,9.7,44.8l0.3,0.7H206z"/>
	</g>
	<g>
		<path class="st1" d="M372,345c-12.4,0-22.5,10.1-22.5,22.5v32.9l-4.6-2.6c-10.9-6-24.6-2-30.6,8.8c-2.9,5.3-3.6,11.3-1.9,17.1
			s5.5,10.6,10.7,13.5l38,21c6.6,3.7,15.1,3.7,21.8,0l38-21c5.3-2.9,9.1-7.7,10.7-13.5s1-11.9-1.9-17.1c-6-10.9-19.7-14.8-30.6-8.8
			l-4.6,2.6v-32.9C394.5,355.1,384.4,345,372,345z M406.4,410.9c3.6-2,8.2-0.7,10.2,2.9c2,3.5,0.6,8.3-2.9,10.2l-38,21
			c-2.3,1.3-5.3,1.2-7.6-0.2l-37.7-20.8c-3.6-1.9-5-6.7-2.9-10.2c2-3.6,6.6-4.9,10.2-2.9l15.7,8.7c4.7,2.8,11.3-1,11.1-6.6v-45.6
			c0-4.1,3.4-7.5,7.5-7.5s7.5,3.4,7.5,7.5v45.6c-0.2,5.5,6.4,9.4,11.1,6.6L406.4,410.9z"/>
		<path class="st1" d="M372,461.5c-3.9,0-7.8-0.9-11.1-2.8l-38-21c-5.4-3-9.3-7.9-11-13.8c-1.7-5.9-1-12.1,2-17.5
			c6.1-11.1,20.2-15.1,31.3-9l3.9,2.1v-32c0-12.7,10.3-23,23-23s23,10.3,23,23v32l3.9-2.1c11.1-6.1,25.1-2.1,31.3,9
			c3,5.4,3.7,11.6,2,17.5c-1.7,5.9-5.6,10.8-11,13.8l-38,21C379.7,460.5,375.9,461.5,372,461.5z M334,395.5
			c-7.8,0-15.3,4.1-19.3,11.4c-2.8,5.1-3.5,11.1-1.9,16.7c1.6,5.6,5.4,10.3,10.5,13.2l38,21c6.5,3.6,14.8,3.6,21.3,0l38-21
			c5.1-2.8,8.9-7.5,10.5-13.2s1-11.6-1.9-16.7c-5.9-10.6-19.3-14.5-29.9-8.6l-5.4,3v-33.7c0-12.1-9.9-22-22-22s-22,9.9-22,22v33.7
			l-5.4-3C341.3,396.4,337.6,395.5,334,395.5z M372,446.5c-1.5,0-2.9-0.4-4.2-1.2l-37.7-20.8c-1.8-1-3.2-2.7-3.8-4.8
			s-0.4-4.3,0.7-6.1c2.1-3.9,7-5.3,10.9-3.1l15.7,8.7c2.1,1.2,4.7,1.2,6.9-0.1c2.3-1.3,3.6-3.6,3.5-6v-45.6c0-4.4,3.6-8,8-8
			s8,3.6,8,8v45.6c-0.1,2.4,1.2,4.7,3.5,6c2.2,1.3,4.8,1.4,6.9,0.1l15.8-8.7c3.9-2.1,8.7-0.7,10.9,3.1c1,1.8,1.3,4,0.7,6.1
			s-2,3.8-3.8,4.8l-38,21C374.7,446.2,373.4,446.5,372,446.5z M334,410.5c-2.5,0-4.9,1.3-6.1,3.6c-0.9,1.6-1.1,3.5-0.6,5.3
			c0.5,1.8,1.7,3.4,3.3,4.2l37.7,20.8c2.2,1.3,4.9,1.4,7.1,0.2l38-21c1.6-0.8,2.8-2.4,3.3-4.2c0.5-1.8,0.3-3.8-0.6-5.3
			c-1.9-3.4-6.1-4.6-9.5-2.8l-15.7,8.7c-2.3,1.4-5.4,1.3-7.9-0.2s-4-4.1-4-6.9v-45.6c0-3.9-3.1-7-7-7s-7,3.1-7,7v45.6
			c0.1,2.7-1.4,5.4-4,6.8c-2.5,1.5-5.6,1.5-7.9,0.1l-15.7-8.7C336.3,410.8,335.1,410.5,334,410.5z"/>
	</g>
</g>
</svg>
